<svg width="20" height="21" viewBox="0 0 20 21" fill="none" xmlns="http://www.w3.org/2000/svg">
<path d="M13.715 11.6904L11.6463 10.4833L13.715 9.27616C13.9877 9.11704 14.0822 8.76281 13.926 8.48499C13.7698 8.20717 13.4219 8.11096 13.1493 8.27011L11.0704 9.48313V7.063C11.0704 6.74281 10.8156 6.48328 10.5013 6.48328C10.187 6.48328 9.93225 6.74281 9.93225 7.063V9.48313L7.85337 8.27011C7.58063 8.11093 7.23292 8.20717 7.07671 8.48499C6.92049 8.76281 7.01496 9.11701 7.28767 9.27616L9.35639 10.4833L7.2877 11.6904C7.01496 11.8495 6.92052 12.2037 7.07673 12.4816C7.23295 12.7594 7.58063 12.8556 7.8534 12.6964L9.93225 11.4834V13.9036C9.93225 14.2237 10.187 14.4833 10.5013 14.4833C10.8156 14.4833 11.0704 14.2237 11.0704 13.9036V11.4834L13.1493 12.6964C13.422 12.8556 13.7698 12.7594 13.926 12.4816C14.0822 12.2037 13.9877 11.8495 13.715 11.6904Z" fill="#7F8489" stroke="#7F8489" stroke-width="0.5"/>
<path d="M17.4356 3.91511L12.4317 1.04866C11.1158 0.294834 9.48072 0.294795 8.1647 1.04866L3.1608 3.91511C1.8288 4.67815 1.00134 6.10597 1.00134 7.64132V13.3252C1.00134 14.8606 1.8288 16.2884 3.16083 17.0514L8.16474 19.9179C9.48075 20.6717 11.1157 20.6717 12.4318 19.9179L17.4356 17.0514C18.7676 16.2884 19.5951 14.8606 19.5951 13.3252V7.64132C19.5951 6.10593 18.7676 4.67811 17.4356 3.91511ZM18.0326 13.3252C18.0326 14.3018 17.5063 15.2099 16.6591 15.6952L11.6552 18.5617C10.8182 19.0412 9.77826 19.0412 8.94122 18.5617L3.93732 15.6952C3.09013 15.2099 2.56384 14.3017 2.56384 13.3252V7.64132C2.56384 6.66475 3.09013 5.75663 3.93736 5.27132L8.94126 2.40487C9.77822 1.92542 10.8182 1.92534 11.6552 2.40487L16.6591 5.27132C17.5063 5.75663 18.0326 6.66475 18.0326 7.64132V13.3252Z" fill="#7F8489" stroke="#7F8489" stroke-width="0.5"/>
</svg>
