<svg width="18" height="20" viewBox="0 0 18 20" fill="none" xmlns="http://www.w3.org/2000/svg">
<path d="M15.8067 10.7725L15.8067 10.7725C15.3555 10.3855 14.96 10.0477 14.4834 9.80149C14.0139 9.55899 13.4572 9.40186 12.6888 9.40186C11.9204 9.40186 11.3637 9.55899 10.8942 9.80149C10.4176 10.0477 10.0221 10.3855 9.57092 10.7725L9.56724 10.7756C8.61361 11.5936 7.48132 12.5647 5.31373 12.5648C3.14626 12.5648 2.01403 11.5936 1.06045 10.7757L1.05668 10.7725C1.05668 10.7725 1.05668 10.7725 1.05668 10.7725C0.68988 10.4578 0.647575 9.90543 0.962215 9.53863L15.8067 10.7725ZM15.8067 10.7725C16.1735 11.087 16.7259 11.0448 17.0405 10.678L17.0405 10.678M15.8067 10.7725L17.0405 10.678M17.0405 10.678C17.3551 10.3112 17.3128 9.75878 16.946 9.44415L16.9423 9.44096C15.9886 8.62303 14.8563 7.65186 12.6888 7.65186C10.5212 7.65186 9.38886 8.62307 8.43521 9.44105L8.43159 9.44416C8.43159 9.44416 8.43159 9.44416 8.43159 9.44416C7.98042 9.83113 7.58487 10.169 7.1083 10.4151C6.63883 10.6576 6.08207 10.8148 5.31373 10.8148C4.54539 10.8148 3.98867 10.6576 3.51924 10.4151C3.04271 10.169 2.6472 9.83115 2.19606 9.44417L2.19605 9.44416M17.0405 10.678L2.19605 9.44416M2.19605 9.44416C1.82928 9.12958 1.27689 9.17177 0.962224 9.53861L2.19605 9.44416Z" fill="#7F8489" stroke="#7F8489" stroke-width="0.5"/>
<path d="M1.06028 4.35697L1.05668 4.35388L1.06028 4.35697ZM1.06028 4.35697C2.01388 5.17496 3.14611 6.14618 5.31373 6.14618M1.06028 4.35697L5.31373 6.14618M5.31373 6.14618C7.48136 6.14618 8.61365 5.17497 9.5673 4.35699M5.31373 6.14618L9.5673 4.35699M9.5673 4.35699L9.57093 4.35388M9.5673 4.35699L9.57093 4.35388M9.57093 4.35388C10.0221 3.96691 10.4176 3.62908 10.8942 3.38291M9.57093 4.35388L10.8942 3.38291M10.8942 3.38291C11.3637 3.14041 11.9204 2.98328 12.6888 2.98328M10.8942 3.38291L12.6888 2.98328M12.6888 2.98328C13.4571 2.98328 14.0139 3.1404 14.4833 3.3829M12.6888 2.98328L14.4833 3.3829M14.4833 3.3829C14.9599 3.62907 15.3555 3.9669 15.8067 4.35388M14.4833 3.3829L15.8067 4.35388M15.8067 4.35388C16.1735 4.66857 16.7259 4.62616 17.0404 4.25936L15.8067 4.35388ZM2.19606 3.02559C2.6472 3.41257 3.04272 3.7504 3.51925 3.99656C3.98868 4.23906 4.54541 4.39618 5.31373 4.39618C6.08207 4.39618 6.63883 4.23905 7.1083 3.99655C7.58487 3.75038 7.98042 3.41255 8.43159 3.02558C8.43159 3.02558 8.43159 3.02558 8.43159 3.02558L8.43521 3.02247C9.38886 2.20449 10.5212 1.23328 12.6888 1.23328C14.8564 1.23328 15.9887 2.20449 16.9424 3.0225L16.9459 3.0255C17.3127 3.34006 17.3551 3.89251 17.0405 4.25934L1.05667 4.35387C0.689876 4.03926 0.647576 3.48683 0.962224 3.12004C1.27685 2.75319 1.82928 2.71095 2.19606 3.02559ZM2.19606 3.02559L2.03329 3.21534L2.19606 3.02559Z" fill="#7F8489" stroke="#7F8489" stroke-width="0.5"/>
<path d="M2.20294 15.8694L2.20287 15.8694L2.19605 15.8635L2.19596 15.8634C1.82918 15.5489 1.27685 15.5912 0.962208 15.9579L0.962187 15.958C0.647582 16.3248 0.689884 16.8772 1.05669 17.1918L1.06025 17.1949C2.01388 18.0129 3.14615 18.9841 5.3137 18.9841C7.48134 18.9841 8.61363 18.0129 9.56728 17.1949L9.5709 17.1918C10.0221 16.8048 10.4176 16.467 10.8942 16.2208C11.3637 15.9783 11.9204 15.8212 12.6888 15.8212C13.4571 15.8212 14.0139 15.9783 14.4834 16.2208C14.9599 16.467 15.3555 16.8048 15.8066 17.1918L15.8066 17.1918C16.1734 17.5064 16.7258 17.4641 17.0405 17.0973L17.0405 17.0973C17.355 16.7305 17.3128 16.1781 16.9459 15.8635L16.9422 15.8603C15.9886 15.0423 14.8563 14.0712 12.6888 14.0712C10.5211 14.0712 9.38884 15.0424 8.43519 15.8604L8.43157 15.8635C8.43156 15.8635 8.43156 15.8635 8.43156 15.8635C7.98039 16.2504 7.58484 16.5883 7.10827 16.8344C6.63881 17.0769 6.08205 17.2341 5.3137 17.2341C4.54542 17.2341 3.9887 17.077 3.51926 16.8345C3.04515 16.5896 2.65123 16.2539 2.20294 15.8694Z" fill="#7F8489" stroke="#7F8489" stroke-width="0.5"/>
</svg>
