<svg width="19" height="22" viewBox="0 0 19 22" fill="none" xmlns="http://www.w3.org/2000/svg">
<path d="M7.25134 2.04578H11.9388C12.3703 2.04578 12.7201 1.69601 12.7201 1.26453C12.7201 0.833042 12.3703 0.483276 11.9388 0.483276H7.25134C6.81986 0.483276 6.47009 0.833042 6.47009 1.26453C6.47009 1.69601 6.81986 2.04578 7.25134 2.04578Z" fill="#7F8489" stroke="#7F8489" stroke-width="0.5"/>
<path d="M9.59509 4.29578C4.84494 4.29578 1.00134 8.14003 1.00134 12.8895C1.00134 17.6396 4.84548 21.4833 9.59509 21.4833C14.3453 21.4833 18.1888 17.639 18.1888 12.8895C18.1888 8.13937 14.3446 4.29578 9.59509 4.29578ZM9.59509 19.9208C5.71806 19.9208 2.56384 16.7666 2.56384 12.8895C2.56384 9.0125 5.71806 5.85828 9.59509 5.85828C13.4721 5.85828 16.6263 9.0125 16.6263 12.8895C16.6263 16.7666 13.4721 19.9208 9.59509 19.9208Z" fill="#7F8489" stroke="#7F8489" stroke-width="0.5"/>
<path d="M9.59509 9.20203C9.16361 9.20203 8.81384 9.55179 8.81384 9.98328V13.8895C8.81384 14.321 9.16361 14.6708 9.59509 14.6708C10.0266 14.6708 10.3763 14.321 10.3763 13.8895V9.98328C10.3763 9.55179 10.0266 9.20203 9.59509 9.20203Z" fill="#7F8489" stroke="#7F8489" stroke-width="0.5"/>
</svg>
